<svg xmlns="http://www.w3.org/2000/svg" xmlns:xlink="http://www.w3.org/1999/xlink" contentStyleType="text/css" data-diagram-type="SEQUENCE" height="706px" preserveAspectRatio="none" style="width:1516px;height:706px;background:#FFFFFF;" version="1.1" viewBox="0 0 1516 706" width="1516px" zoomAndPan="magnify"><defs/><g><g><title>Admin</title><rect fill="#000000" fill-opacity="0.00000" height="544.3906" width="8" x="26.4321" y="81.2969"/><line style="stroke:#181818;stroke-width:0.5;stroke-dasharray:5,5;" x1="30" x2="30" y1="81.2969" y2="625.6875"/></g><g><title>UserAPI.Controller</title><rect fill="#000000" fill-opacity="0.00000" height="544.3906" width="8" x="320.9819" y="81.2969"/><line style="stroke:#181818;stroke-width:0.5;stroke-dasharray:5,5;" x1="324.0078" x2="324.0078" y1="81.2969" y2="625.6875"/></g><g><title>CreateUserInteractor</title><rect fill="#000000" fill-opacity="0.00000" height="544.3906" width="8" x="482.7979" y="81.2969"/><line style="stroke:#181818;stroke-width:0.5;stroke-dasharray:5,5;" x1="485.9561" x2="485.9561" y1="81.2969" y2="625.6875"/></g><g><title>UserContext</title><rect fill="#000000" fill-opacity="0.00000" height="544.3906" width="8" x="661.8965" y="81.2969"/><line style="stroke:#181818;stroke-width:0.5;stroke-dasharray:5,5;" x1="665.396" x2="665.396" y1="81.2969" y2="625.6875"/></g><g><title>UserGetter</title><rect fill="#000000" fill-opacity="0.00000" height="544.3906" width="8" x="767.7568" y="81.2969"/><line style="stroke:#181818;stroke-width:0.5;stroke-dasharray:5,5;" x1="771.397" x2="771.397" y1="81.2969" y2="625.6875"/></g><g><title>UserAuthorizationPolicy</title><rect fill="#000000" fill-opacity="0.00000" height="544.3906" width="8" x="913.3408" y="81.2969"/><line style="stroke:#181818;stroke-width:0.5;stroke-dasharray:5,5;" x1="917.1167" x2="917.1167" y1="81.2969" y2="625.6875"/></g><g><title>CreateUserValidator</title><rect fill="#000000" fill-opacity="0.00000" height="544.3906" width="8" x="1091.5391" y="81.2969"/><line style="stroke:#181818;stroke-width:0.5;stroke-dasharray:5,5;" x1="1094.5649" x2="1094.5649" y1="81.2969" y2="625.6875"/></g><g><title>HashGenerator</title><rect fill="#000000" fill-opacity="0.00000" height="544.3906" width="8" x="1239.6968" y="81.2969"/><line style="stroke:#181818;stroke-width:0.5;stroke-dasharray:5,5;" x1="1243.5132" x2="1243.5132" y1="81.2969" y2="625.6875"/></g><g><title>UserCreator</title><rect fill="#000000" fill-opacity="0.00000" height="544.3906" width="8" x="1359.1025" y="81.2969"/><line style="stroke:#181818;stroke-width:0.5;stroke-dasharray:5,5;" x1="1362.8804" x2="1362.8804" y1="81.2969" y2="625.6875"/></g><g><title>DBSession</title><rect fill="#000000" fill-opacity="0.00000" height="544.3906" width="8" x="1462.2251" y="81.2969"/><line style="stroke:#181818;stroke-width:0.5;stroke-dasharray:5,5;" x1="1465.3247" x2="1465.3247" y1="81.2969" y2="625.6875"/></g><g class="participant participant-head" data-participant="Admin"><text fill="#000000" font-family="sans-serif" font-size="14" lengthAdjust="spacing" textLength="44.8643" x="5" y="77.9951">Admin</text><ellipse cx="30.4321" cy="13.5" fill="#E2E2F0" rx="8" ry="8" style="stroke:#181818;stroke-width:0.5;"/><path d="M30.4321,21.5 L30.4321,48.5 M17.4321,29.5 L43.4321,29.5 M30.4321,48.5 L17.4321,63.5 M30.4321,48.5 L43.4321,63.5" fill="none" style="stroke:#181818;stroke-width:0.5;"/></g><g class="participant participant-tail" data-participant="Admin"><text fill="#000000" font-family="sans-serif" font-size="14" lengthAdjust="spacing" textLength="44.8643" x="5" y="637.6826">Admin</text><ellipse cx="30.4321" cy="649.4844" fill="#E2E2F0" rx="8" ry="8" style="stroke:#181818;stroke-width:0.5;"/><path d="M30.4321,657.4844 L30.4321,684.4844 M17.4321,665.4844 L43.4321,665.4844 M30.4321,684.4844 L17.4321,699.4844 M30.4321,684.4844 L43.4321,699.4844" fill="none" style="stroke:#181818;stroke-width:0.5;"/></g><g class="participant participant-head" data-participant="API"><rect fill="#E2E2F0" height="30.2969" rx="2.5" ry="2.5" style="stroke:#181818;stroke-width:0.5;" width="141.9482" x="254.0078" y="50"/><text fill="#000000" font-family="sans-serif" font-size="14" lengthAdjust="spacing" textLength="127.9482" x="261.0078" y="69.9951">UserAPI/Controller</text></g><g class="participant participant-tail" data-participant="API"><rect fill="#E2E2F0" height="30.2969" rx="2.5" ry="2.5" style="stroke:#181818;stroke-width:0.5;" width="141.9482" x="254.0078" y="624.6875"/><text fill="#000000" font-family="sans-serif" font-size="14" lengthAdjust="spacing" textLength="127.9482" x="261.0078" y="644.6826">UserAPI/Controller</text></g><g class="participant participant-head" data-participant="I"><rect fill="#E2E2F0" height="30.2969" rx="2.5" ry="2.5" style="stroke:#181818;stroke-width:0.5;" width="161.6836" x="405.9561" y="50"/><text fill="#000000" font-family="sans-serif" font-size="14" lengthAdjust="spacing" textLength="147.6836" x="412.9561" y="69.9951">CreateUserInteractor</text></g><g class="participant participant-tail" data-participant="I"><rect fill="#E2E2F0" height="30.2969" rx="2.5" ry="2.5" style="stroke:#181818;stroke-width:0.5;" width="161.6836" x="405.9561" y="624.6875"/><text fill="#000000" font-family="sans-serif" font-size="14" lengthAdjust="spacing" textLength="147.6836" x="412.9561" y="644.6826">CreateUserInteractor</text></g><g class="participant participant-head" data-participant="Ctx"><rect fill="#E2E2F0" height="30.2969" rx="2.5" ry="2.5" style="stroke:#181818;stroke-width:0.5;" width="101.001" x="615.396" y="50"/><text fill="#000000" font-family="sans-serif" font-size="14" lengthAdjust="spacing" textLength="87.001" x="622.396" y="69.9951">UserContext</text></g><g class="participant participant-tail" data-participant="Ctx"><rect fill="#E2E2F0" height="30.2969" rx="2.5" ry="2.5" style="stroke:#181818;stroke-width:0.5;" width="101.001" x="615.396" y="624.6875"/><text fill="#000000" font-family="sans-serif" font-size="14" lengthAdjust="spacing" textLength="87.001" x="622.396" y="644.6826">UserContext</text></g><g class="participant participant-head" data-participant="UG"><rect fill="#E2E2F0" height="30.2969" rx="2.5" ry="2.5" style="stroke:#181818;stroke-width:0.5;" width="90.7197" x="726.397" y="50"/><text fill="#000000" font-family="sans-serif" font-size="14" lengthAdjust="spacing" textLength="76.7197" x="733.397" y="69.9951">UserGetter</text></g><g class="participant participant-tail" data-participant="UG"><rect fill="#E2E2F0" height="30.2969" rx="2.5" ry="2.5" style="stroke:#181818;stroke-width:0.5;" width="90.7197" x="726.397" y="624.6875"/><text fill="#000000" font-family="sans-serif" font-size="14" lengthAdjust="spacing" textLength="76.7197" x="733.397" y="644.6826">UserGetter</text></g><g class="participant participant-head" data-participant="Policy"><rect fill="#E2E2F0" height="30.2969" rx="2.5" ry="2.5" style="stroke:#181818;stroke-width:0.5;" width="180.4482" x="827.1167" y="50"/><text fill="#000000" font-family="sans-serif" font-size="14" lengthAdjust="spacing" textLength="166.4482" x="834.1167" y="69.9951">UserAuthorizationPolicy</text></g><g class="participant participant-tail" data-participant="Policy"><rect fill="#E2E2F0" height="30.2969" rx="2.5" ry="2.5" style="stroke:#181818;stroke-width:0.5;" width="180.4482" x="827.1167" y="624.6875"/><text fill="#000000" font-family="sans-serif" font-size="14" lengthAdjust="spacing" textLength="166.4482" x="834.1167" y="644.6826">UserAuthorizationPolicy</text></g><g class="participant participant-head" data-participant="V"><rect fill="#E2E2F0" height="30.2969" rx="2.5" ry="2.5" style="stroke:#181818;stroke-width:0.5;" width="155.9482" x="1017.5649" y="50"/><text fill="#000000" font-family="sans-serif" font-size="14" lengthAdjust="spacing" textLength="141.9482" x="1024.5649" y="69.9951">CreateUserValidator</text></g><g class="participant participant-tail" data-participant="V"><rect fill="#E2E2F0" height="30.2969" rx="2.5" ry="2.5" style="stroke:#181818;stroke-width:0.5;" width="155.9482" x="1017.5649" y="624.6875"/><text fill="#000000" font-family="sans-serif" font-size="14" lengthAdjust="spacing" textLength="141.9482" x="1024.5649" y="644.6826">CreateUserValidator</text></g><g class="participant participant-head" data-participant="Hash"><rect fill="#E2E2F0" height="30.2969" rx="2.5" ry="2.5" style="stroke:#181818;stroke-width:0.5;" width="120.3672" x="1183.5132" y="50"/><text fill="#000000" font-family="sans-serif" font-size="14" lengthAdjust="spacing" textLength="106.3672" x="1190.5132" y="69.9951">HashGenerator</text></g><g class="participant participant-tail" data-participant="Hash"><rect fill="#E2E2F0" height="30.2969" rx="2.5" ry="2.5" style="stroke:#181818;stroke-width:0.5;" width="120.3672" x="1183.5132" y="624.6875"/><text fill="#000000" font-family="sans-serif" font-size="14" lengthAdjust="spacing" textLength="106.3672" x="1190.5132" y="644.6826">HashGenerator</text></g><g class="participant participant-head" data-participant="UC"><rect fill="#E2E2F0" height="30.2969" rx="2.5" ry="2.5" style="stroke:#181818;stroke-width:0.5;" width="98.4443" x="1313.8804" y="50"/><text fill="#000000" font-family="sans-serif" font-size="14" lengthAdjust="spacing" textLength="84.4443" x="1320.8804" y="69.9951">UserCreator</text></g><g class="participant participant-tail" data-participant="UC"><rect fill="#E2E2F0" height="30.2969" rx="2.5" ry="2.5" style="stroke:#181818;stroke-width:0.5;" width="98.4443" x="1313.8804" y="624.6875"/><text fill="#000000" font-family="sans-serif" font-size="14" lengthAdjust="spacing" textLength="84.4443" x="1320.8804" y="644.6826">UserCreator</text></g><g class="participant participant-head" data-participant="DB"><rect fill="#E2E2F0" height="30.2969" rx="2.5" ry="2.5" style="stroke:#181818;stroke-width:0.5;" width="87.8008" x="1422.3247" y="50"/><text fill="#000000" font-family="sans-serif" font-size="14" lengthAdjust="spacing" textLength="73.8008" x="1429.3247" y="69.9951">DBSession</text></g><g class="participant participant-tail" data-participant="DB"><rect fill="#E2E2F0" height="30.2969" rx="2.5" ry="2.5" style="stroke:#181818;stroke-width:0.5;" width="87.8008" x="1422.3247" y="624.6875"/><text fill="#000000" font-family="sans-serif" font-size="14" lengthAdjust="spacing" textLength="73.8008" x="1429.3247" y="644.6826">DBSession</text></g><g class="message" data-participant-1="Admin" data-participant-2="API"><polygon fill="#181818" points="312.9819,108.4297,322.9819,112.4297,312.9819,116.4297,316.9819,112.4297" style="stroke:#181818;stroke-width:1;"/><line style="stroke:#181818;stroke-width:1;" x1="30.4321" x2="318.9819" y1="112.4297" y2="112.4297"/><text fill="#000000" font-family="sans-serif" font-size="13" lengthAdjust="spacing" textLength="270.5498" x="37.4321" y="107.3638">POST /users {name,email,password,role}</text></g><g class="message" data-participant-1="API" data-participant-2="I"><polygon fill="#181818" points="474.7979,137.5625,484.7979,141.5625,474.7979,145.5625,478.7979,141.5625" style="stroke:#181818;stroke-width:1;"/><line style="stroke:#181818;stroke-width:1;" x1="324.9819" x2="480.7979" y1="141.5625" y2="141.5625"/><text fill="#000000" font-family="sans-serif" font-size="13" lengthAdjust="spacing" textLength="83.6177" x="331.9819" y="136.4966">execute(dto)</text></g><g class="message" data-participant-1="I" data-participant-2="Ctx"><polygon fill="#181818" points="653.8965,166.6953,663.8965,170.6953,653.8965,174.6953,657.8965,170.6953" style="stroke:#181818;stroke-width:1;"/><line style="stroke:#181818;stroke-width:1;" x1="486.7979" x2="659.8965" y1="170.6953" y2="170.6953"/><text fill="#000000" font-family="sans-serif" font-size="13" lengthAdjust="spacing" textLength="155.0986" x="493.7979" y="165.6294">get_current_user_uuid()</text></g><g class="message" data-participant-1="Ctx" data-participant-2="I"><polygon fill="#181818" points="497.7979,195.8281,487.7979,199.8281,497.7979,203.8281,493.7979,199.8281" style="stroke:#181818;stroke-width:1;"/><line style="stroke:#181818;stroke-width:1;stroke-dasharray:2,2;" x1="491.7979" x2="664.8965" y1="199.8281" y2="199.8281"/><text fill="#000000" font-family="sans-serif" font-size="13" lengthAdjust="spacing" textLength="75.5752" x="503.7979" y="194.7622">admin_uuid</text></g><g class="message" data-participant-1="I" data-participant-2="UG"><polygon fill="#181818" points="759.7568,224.9609,769.7568,228.9609,759.7568,232.9609,763.7568,228.9609" style="stroke:#181818;stroke-width:1;"/><line style="stroke:#181818;stroke-width:1;" x1="486.7979" x2="765.7568" y1="228.9609" y2="228.9609"/><text fill="#000000" font-family="sans-serif" font-size="13" lengthAdjust="spacing" textLength="107.0659" x="493.7979" y="223.895">get(admin_uuid)</text></g><g class="message" data-participant-1="UG" data-participant-2="I"><polygon fill="#181818" points="497.7979,254.0938,487.7979,258.0938,497.7979,262.0938,493.7979,258.0938" style="stroke:#181818;stroke-width:1;"/><line style="stroke:#181818;stroke-width:1;stroke-dasharray:2,2;" x1="491.7979" x2="770.7568" y1="258.0938" y2="258.0938"/><text fill="#000000" font-family="sans-serif" font-size="13" lengthAdjust="spacing" textLength="75.5879" x="503.7979" y="253.0278">admin_user</text></g><g class="message" data-participant-1="I" data-participant-2="Policy"><polygon fill="#181818" points="905.3408,283.2266,915.3408,287.2266,905.3408,291.2266,909.3408,287.2266" style="stroke:#181818;stroke-width:1;"/><line style="stroke:#181818;stroke-width:1;" x1="486.7979" x2="911.3408" y1="287.2266" y2="287.2266"/><text fill="#000000" font-family="sans-serif" font-size="13" lengthAdjust="spacing" textLength="191.9912" x="493.7979" y="282.1606">can_create_user(admin_user)</text></g><g class="message" data-participant-1="Policy" data-participant-2="I"><polygon fill="#181818" points="497.7979,312.3594,487.7979,316.3594,497.7979,320.3594,493.7979,316.3594" style="stroke:#181818;stroke-width:1;"/><line style="stroke:#181818;stroke-width:1;stroke-dasharray:2,2;" x1="491.7979" x2="916.3408" y1="316.3594" y2="316.3594"/><text fill="#000000" font-family="sans-serif" font-size="13" lengthAdjust="spacing" textLength="38.5493" x="503.7979" y="311.2935">ok/err</text></g><g class="message" data-participant-1="I" data-participant-2="V"><polygon fill="#181818" points="1083.5391,341.4922,1093.5391,345.4922,1083.5391,349.4922,1087.5391,345.4922" style="stroke:#181818;stroke-width:1;"/><line style="stroke:#181818;stroke-width:1;" x1="486.7979" x2="1089.5391" y1="345.4922" y2="345.4922"/><text fill="#000000" font-family="sans-serif" font-size="13" lengthAdjust="spacing" textLength="83.6431" x="493.7979" y="340.4263">validate(dto)</text></g><g class="message" data-participant-1="V" data-participant-2="I"><polygon fill="#181818" points="497.7979,370.625,487.7979,374.625,497.7979,378.625,493.7979,374.625" style="stroke:#181818;stroke-width:1;"/><line style="stroke:#181818;stroke-width:1;stroke-dasharray:2,2;" x1="491.7979" x2="1094.5391" y1="374.625" y2="374.625"/><text fill="#000000" font-family="sans-serif" font-size="13" lengthAdjust="spacing" textLength="38.5493" x="503.7979" y="369.5591">ok/err</text></g><g class="message" data-participant-1="I" data-participant-2="Hash"><polygon fill="#181818" points="1231.6968,399.7578,1241.6968,403.7578,1231.6968,407.7578,1235.6968,403.7578" style="stroke:#181818;stroke-width:1;"/><line style="stroke:#181818;stroke-width:1;" x1="486.7979" x2="1237.6968" y1="403.7578" y2="403.7578"/><text fill="#000000" font-family="sans-serif" font-size="13" lengthAdjust="spacing" textLength="130.9839" x="493.7979" y="398.6919">generate(password)</text></g><g class="message" data-participant-1="Hash" data-participant-2="I"><polygon fill="#181818" points="497.7979,428.8906,487.7979,432.8906,497.7979,436.8906,493.7979,432.8906" style="stroke:#181818;stroke-width:1;"/><line style="stroke:#181818;stroke-width:1;stroke-dasharray:2,2;" x1="491.7979" x2="1242.6968" y1="432.8906" y2="432.8906"/><text fill="#000000" font-family="sans-serif" font-size="13" lengthAdjust="spacing" textLength="99.6646" x="503.7979" y="427.8247">password_hash</text></g><g class="message" data-participant-1="I" data-participant-2="UC"><polygon fill="#181818" points="1351.1025,458.0234,1361.1025,462.0234,1351.1025,466.0234,1355.1025,462.0234" style="stroke:#181818;stroke-width:1;"/><line style="stroke:#181818;stroke-width:1;" x1="486.7979" x2="1357.1025" y1="462.0234" y2="462.0234"/><text fill="#000000" font-family="sans-serif" font-size="13" lengthAdjust="spacing" textLength="141.1719" x="493.7979" y="456.9575">create(User(...role...))</text></g><g class="message" data-participant-1="UC" data-participant-2="I"><polygon fill="#181818" points="497.7979,487.1563,487.7979,491.1563,497.7979,495.1563,493.7979,491.1563" style="stroke:#181818;stroke-width:1;"/><line style="stroke:#181818;stroke-width:1;stroke-dasharray:2,2;" x1="491.7979" x2="1362.1025" y1="491.1563" y2="491.1563"/><text fill="#000000" font-family="sans-serif" font-size="13" lengthAdjust="spacing" textLength="84.6587" x="503.7979" y="486.0903">created_user</text></g><g class="message" data-participant-1="I" data-participant-2="DB"><polygon fill="#181818" points="1454.2251,516.2891,1464.2251,520.2891,1454.2251,524.2891,1458.2251,520.2891" style="stroke:#181818;stroke-width:1;"/><line style="stroke:#181818;stroke-width:1;" x1="486.7979" x2="1460.2251" y1="520.2891" y2="520.2891"/><text fill="#000000" font-family="sans-serif" font-size="13" lengthAdjust="spacing" textLength="59.2808" x="493.7979" y="515.2231">commit()</text></g><g class="message" data-participant-1="DB" data-participant-2="I"><polygon fill="#181818" points="497.7979,545.4219,487.7979,549.4219,497.7979,553.4219,493.7979,549.4219" style="stroke:#181818;stroke-width:1;"/><line style="stroke:#181818;stroke-width:1;stroke-dasharray:2,2;" x1="491.7979" x2="1465.2251" y1="549.4219" y2="549.4219"/><text fill="#000000" font-family="sans-serif" font-size="13" lengthAdjust="spacing" textLength="15.4819" x="503.7979" y="544.356">ok</text></g><g class="message" data-participant-1="I" data-participant-2="API"><polygon fill="#181818" points="335.9819,574.5547,325.9819,578.5547,335.9819,582.5547,331.9819,578.5547" style="stroke:#181818;stroke-width:1;"/><line style="stroke:#181818;stroke-width:1;stroke-dasharray:2,2;" x1="329.9819" x2="485.7979" y1="578.5547" y2="578.5547"/><text fill="#000000" font-family="sans-serif" font-size="13" lengthAdjust="spacing" textLength="124.8647" x="341.9819" y="573.4888">CreateUserOutDTO</text></g><g class="message" data-participant-1="API" data-participant-2="Admin"><polygon fill="#181818" points="41.4321,603.6875,31.4321,607.6875,41.4321,611.6875,37.4321,607.6875" style="stroke:#181818;stroke-width:1;"/><line style="stroke:#181818;stroke-width:1;stroke-dasharray:2,2;" x1="35.4321" x2="323.9819" y1="607.6875" y2="607.6875"/><text fill="#000000" font-family="sans-serif" font-size="13" lengthAdjust="spacing" textLength="47.7026" x="47.4321" y="602.6216">200 OK</text></g><!--SRC=[TLBBReCm4BpxAwoSGCfBFUPGAG69HZqGAO4hic3LM0KxCakRjkg_rsjCQ9hq1EmyF9v5bAWDNrUDLEma3CfIdeH2FibQCElTTX5fXKRNDPW95ostesjUP40W47kh48mWFyVStlgH5vpHmH6URma98Fg3ikHEdWwFsiXFWLAhdQvb-U6u_Uj_kN9HoqeCiV9hsfDeZmae6tmWqEHETBBpZ2ownkFD7jhMHd9el67CzSbdZrGNN_5TkZ_mHMTjMlwbH0DJQ8IifoVHjk_QL5DRC7mp8biDAU0CPOSGLAX3njpO5cQ15y2Yx8m1XGKP5bqdgo1aXCwyMD3f3l3IBEcLmOY4p0x_2AoT5_I5MgGKgYXTamuEHcR8F6amqQyBC8D1RWTlVU_-4lbz8hNjmhaLG31K4ZA739fXN1nfE_vM4GLquG9QKJ2Vpwb8-mZjzQABkETKloyORsYkcqQYBSz-ZU4SuxAwyJTAEumFQRyaWjsAL_nXkUJfymy0]--></g></svg>