<svg xmlns="http://www.w3.org/2000/svg" xmlns:xlink="http://www.w3.org/1999/xlink" contentStyleType="text/css" data-diagram-type="ACTIVITY" height="804px" preserveAspectRatio="none" style="width:567px;height:804px;background:#FFFFFF;" version="1.1" viewBox="0 0 567 804" width="567px" zoomAndPan="magnify"><defs/><g><ellipse cx="320.0938" cy="20" fill="#222222" rx="10" ry="10" style="stroke:#222222;stroke-width:1;"/><rect fill="#F1F1F1" height="33.9688" rx="12.5" ry="12.5" style="stroke:#181818;stroke-width:0.5;" width="123.0781" x="258.5547" y="50"/><text fill="#000000" font-family="sans-serif" font-size="12" lengthAdjust="spacing" textLength="103.0781" x="268.5547" y="71.1387">&#1054;&#1090;&#1082;&#1088;&#1099;&#1090;&#1100; &#1087;&#1088;&#1086;&#1077;&#1082;&#1090;</text><rect fill="#F1F1F1" height="33.9688" rx="12.5" ry="12.5" style="stroke:#181818;stroke-width:0.5;" width="266.0352" x="187.0762" y="103.9688"/><text fill="#000000" font-family="sans-serif" font-size="12" lengthAdjust="spacing" textLength="246.0352" x="197.0762" y="125.1074">&#1042;&#1099;&#1073;&#1088;&#1072;&#1090;&#1100; &#1076;&#1072;&#1090;&#1091; (&#1087;&#1086; &#1091;&#1084;&#1086;&#1083;&#1095;&#1072;&#1085;&#1080;&#1102; &#1089;&#1077;&#1075;&#1086;&#1076;&#1085;&#1103;)</text><polygon fill="#F1F1F1" points="231.4143,157.9375,408.7732,157.9375,420.7732,169.9375,408.7732,181.9375,231.4143,181.9375,219.4143,169.9375,231.4143,157.9375" style="stroke:#181818;stroke-width:0.5;"/><text fill="#000000" font-family="sans-serif" font-size="11" lengthAdjust="spacing" textLength="177.3589" x="231.4143" y="173.7456">&#1045;&#1089;&#1090;&#1100; &#1079;&#1072;&#1087;&#1080;&#1089;&#1100; DayEntry &#1085;&#1072; &#1076;&#1072;&#1090;&#1091;?</text><text fill="#000000" font-family="sans-serif" font-size="11" lengthAdjust="spacing" textLength="14.3462" x="205.0681" y="167.3433">&#1076;&#1072;</text><text fill="#000000" font-family="sans-serif" font-size="11" lengthAdjust="spacing" textLength="20.3672" x="420.7732" y="167.3433">&#1085;&#1077;&#1090;</text><rect fill="#F1F1F1" height="33.9688" rx="12.5" ry="12.5" style="stroke:#181818;stroke-width:0.5;" width="143.75" x="137.5393" y="191.9375"/><text fill="#000000" font-family="sans-serif" font-size="12" lengthAdjust="spacing" textLength="123.75" x="147.5393" y="213.0762">&#1047;&#1072;&#1075;&#1088;&#1091;&#1079;&#1080;&#1090;&#1100; DayEntry</text><rect fill="#F1F1F1" height="33.9688" rx="12.5" ry="12.5" style="stroke:#181818;stroke-width:0.5;" width="250.9766" x="305.2849" y="191.9375"/><text fill="#000000" font-family="sans-serif" font-size="12" lengthAdjust="spacing" textLength="230.9766" x="315.2849" y="213.0762">&#1057;&#1086;&#1079;&#1076;&#1072;&#1090;&#1100; DayEntry (&#1095;&#1077;&#1088;&#1085;&#1086;&#1074;&#1080;&#1082;/&#1087;&#1091;&#1089;&#1090;&#1072;&#1103;)</text><polygon fill="#F1F1F1" points="320.0938,231.9063,332.0938,243.9063,320.0938,255.9063,308.0938,243.9063,320.0938,231.9063" style="stroke:#181818;stroke-width:0.5;"/><rect fill="#F1F1F1" height="33.9688" rx="12.5" ry="12.5" style="stroke:#181818;stroke-width:0.5;" width="228.084" x="206.0518" y="275.9063"/><text fill="#000000" font-family="sans-serif" font-size="12" lengthAdjust="spacing" textLength="208.084" x="216.0518" y="297.0449">&#1042;&#1099;&#1073;&#1088;&#1072;&#1090;&#1100; &#1087;&#1086;&#1076;&#1101;&#1090;&#1072;&#1087; &#1076;&#1085;&#1103; (SubStage)</text><rect fill="#F1F1F1" height="33.9688" rx="12.5" ry="12.5" style="stroke:#181818;stroke-width:0.5;" width="212.6914" x="213.748" y="329.875"/><text fill="#000000" font-family="sans-serif" font-size="12" lengthAdjust="spacing" textLength="192.6914" x="223.748" y="351.0137">&#1044;&#1086;&#1073;&#1072;&#1074;&#1080;&#1090;&#1100;/&#1074;&#1099;&#1073;&#1088;&#1072;&#1090;&#1100; &#1079;&#1072;&#1076;&#1072;&#1095;&#1080; &#1076;&#1085;&#1103;</text><rect fill="#F1F1F1" height="33.9688" rx="12.5" ry="12.5" style="stroke:#181818;stroke-width:0.5;" width="234.1777" x="203.0049" y="383.8438"/><text fill="#000000" font-family="sans-serif" font-size="12" lengthAdjust="spacing" textLength="214.1777" x="213.0049" y="404.9824">&#1047;&#1072;&#1087;&#1086;&#1083;&#1085;&#1080;&#1090;&#1100; &#1086;&#1087;&#1080;&#1089;&#1072;&#1085;&#1080;&#1077; &#1088;&#1077;&#1079;&#1091;&#1083;&#1100;&#1090;&#1072;&#1090;&#1086;&#1074;</text><rect fill="#F1F1F1" height="33.9688" rx="12.5" ry="12.5" style="stroke:#181818;stroke-width:0.5;" width="231.8691" x="204.1592" y="437.8125"/><text fill="#000000" font-family="sans-serif" font-size="12" lengthAdjust="spacing" textLength="211.8691" x="214.1592" y="458.9512">&#1042;&#1085;&#1077;&#1089;&#1090;&#1080; &#1095;&#1072;&#1089;&#1099; / &#1090;&#1072;&#1073;&#1083;&#1080;&#1095;&#1085;&#1099;&#1077; &#1076;&#1072;&#1085;&#1085;&#1099;&#1077;</text><rect fill="#F1F1F1" height="33.9688" rx="12.5" ry="12.5" style="stroke:#181818;stroke-width:0.5;" width="231.7578" x="204.2148" y="491.7813"/><text fill="#000000" font-family="sans-serif" font-size="12" lengthAdjust="spacing" textLength="211.7578" x="214.2148" y="512.9199">&#1055;&#1088;&#1080;&#1082;&#1088;&#1077;&#1087;&#1080;&#1090;&#1100; &#1092;&#1072;&#1081;&#1083;&#1099;/&#1080;&#1079;&#1086;&#1073;&#1088;&#1072;&#1078;&#1077;&#1085;&#1080;&#1103;</text><polygon fill="#F1F1F1" points="218.3706,545.75,421.8169,545.75,433.8169,557.75,421.8169,569.75,218.3706,569.75,206.3706,557.75,218.3706,545.75" style="stroke:#181818;stroke-width:0.5;"/><text fill="#000000" font-family="sans-serif" font-size="11" lengthAdjust="spacing" textLength="203.4463" x="218.3706" y="561.5581">&#1055;&#1086;&#1083;&#1100;&#1079;&#1086;&#1074;&#1072;&#1090;&#1077;&#1083;&#1100; &#1085;&#1072;&#1078;&#1072;&#1083; "&#1057;&#1086;&#1093;&#1088;&#1072;&#1085;&#1080;&#1090;&#1100;"?</text><text fill="#000000" font-family="sans-serif" font-size="11" lengthAdjust="spacing" textLength="14.3462" x="192.0244" y="555.1558">&#1076;&#1072;</text><text fill="#000000" font-family="sans-serif" font-size="11" lengthAdjust="spacing" textLength="20.3672" x="433.8169" y="555.1558">&#1085;&#1077;&#1090;</text><rect fill="#F1F1F1" height="33.9688" rx="12.5" ry="12.5" style="stroke:#181818;stroke-width:0.5;" width="141.623" x="110.0176" y="579.75"/><text fill="#000000" font-family="sans-serif" font-size="12" lengthAdjust="spacing" textLength="121.623" x="120.0176" y="600.8887">&#1042;&#1072;&#1083;&#1080;&#1076;&#1072;&#1094;&#1080;&#1103; &#1076;&#1072;&#1085;&#1085;&#1099;&#1093;</text><rect fill="#F1F1F1" height="33.9688" rx="12.5" ry="12.5" style="stroke:#181818;stroke-width:0.5;" width="146.9375" x="107.3604" y="633.7188"/><text fill="#000000" font-family="sans-serif" font-size="12" lengthAdjust="spacing" textLength="126.9375" x="117.3604" y="654.8574">&#1057;&#1086;&#1093;&#1088;&#1072;&#1085;&#1080;&#1090;&#1100; DayEntry</text><rect fill="#F1F1F1" height="33.9688" rx="12.5" ry="12.5" style="stroke:#181818;stroke-width:0.5;" width="339.6582" x="11" y="687.6875"/><text fill="#000000" font-family="sans-serif" font-size="12" lengthAdjust="spacing" textLength="319.6582" x="21" y="708.8262">&#1047;&#1072;&#1087;&#1080;&#1089;&#1072;&#1090;&#1100; AuditLog(DAY_ENTRY_CREATED/UPDATED)</text><rect fill="#F1F1F1" height="33.9688" rx="12.5" ry="12.5" style="stroke:#181818;stroke-width:0.5;" width="177.4004" x="370.6582" y="579.75"/><text fill="#000000" font-family="sans-serif" font-size="12" lengthAdjust="spacing" textLength="157.4004" x="380.6582" y="600.8887">&#1054;&#1089;&#1090;&#1072;&#1074;&#1080;&#1090;&#1100; &#1073;&#1077;&#1079; &#1080;&#1079;&#1084;&#1077;&#1085;&#1077;&#1085;&#1080;&#1081;</text><polygon fill="#F1F1F1" points="320.0938,727.6563,332.0938,739.6563,320.0938,751.6563,308.0938,739.6563,320.0938,727.6563" style="stroke:#181818;stroke-width:0.5;"/><ellipse cx="320.0938" cy="782.6563" fill="none" rx="11" ry="11" style="stroke:#222222;stroke-width:1;"/><ellipse cx="320.0938" cy="782.6563" fill="#222222" rx="6" ry="6" style="stroke:#222222;stroke-width:1;"/><line style="stroke:#181818;stroke-width:1;" x1="320.0938" x2="320.0938" y1="30" y2="50"/><polygon fill="#181818" points="316.0938,40,320.0938,50,324.0938,40,320.0938,44" style="stroke:#181818;stroke-width:1;"/><line style="stroke:#181818;stroke-width:1;" x1="320.0938" x2="320.0938" y1="83.9688" y2="103.9688"/><polygon fill="#181818" points="316.0938,93.9688,320.0938,103.9688,324.0938,93.9688,320.0938,97.9688" style="stroke:#181818;stroke-width:1;"/><line style="stroke:#181818;stroke-width:1;" x1="219.4143" x2="209.4143" y1="169.9375" y2="169.9375"/><line style="stroke:#181818;stroke-width:1;" x1="209.4143" x2="209.4143" y1="169.9375" y2="191.9375"/><polygon fill="#181818" points="205.4143,181.9375,209.4143,191.9375,213.4143,181.9375,209.4143,185.9375" style="stroke:#181818;stroke-width:1;"/><line style="stroke:#181818;stroke-width:1;" x1="420.7732" x2="430.7732" y1="169.9375" y2="169.9375"/><line style="stroke:#181818;stroke-width:1;" x1="430.7732" x2="430.7732" y1="169.9375" y2="191.9375"/><polygon fill="#181818" points="426.7732,181.9375,430.7732,191.9375,434.7732,181.9375,430.7732,185.9375" style="stroke:#181818;stroke-width:1;"/><line style="stroke:#181818;stroke-width:1;" x1="209.4143" x2="209.4143" y1="225.9063" y2="243.9063"/><line style="stroke:#181818;stroke-width:1;" x1="209.4143" x2="308.0938" y1="243.9063" y2="243.9063"/><polygon fill="#181818" points="298.0938,239.9063,308.0938,243.9063,298.0938,247.9063,302.0938,243.9063" style="stroke:#181818;stroke-width:1;"/><line style="stroke:#181818;stroke-width:1;" x1="430.7732" x2="430.7732" y1="225.9063" y2="243.9063"/><line style="stroke:#181818;stroke-width:1;" x1="430.7732" x2="332.0938" y1="243.9063" y2="243.9063"/><polygon fill="#181818" points="342.0938,239.9063,332.0938,243.9063,342.0938,247.9063,338.0938,243.9063" style="stroke:#181818;stroke-width:1;"/><line style="stroke:#181818;stroke-width:1;" x1="320.0938" x2="320.0938" y1="137.9375" y2="157.9375"/><polygon fill="#181818" points="316.0938,147.9375,320.0938,157.9375,324.0938,147.9375,320.0938,151.9375" style="stroke:#181818;stroke-width:1;"/><line style="stroke:#181818;stroke-width:1;" x1="320.0938" x2="320.0938" y1="255.9063" y2="275.9063"/><polygon fill="#181818" points="316.0938,265.9063,320.0938,275.9063,324.0938,265.9063,320.0938,269.9063" style="stroke:#181818;stroke-width:1;"/><line style="stroke:#181818;stroke-width:1;" x1="320.0938" x2="320.0938" y1="309.875" y2="329.875"/><polygon fill="#181818" points="316.0938,319.875,320.0938,329.875,324.0938,319.875,320.0938,323.875" style="stroke:#181818;stroke-width:1;"/><line style="stroke:#181818;stroke-width:1;" x1="320.0938" x2="320.0938" y1="363.8438" y2="383.8438"/><polygon fill="#181818" points="316.0938,373.8438,320.0938,383.8438,324.0938,373.8438,320.0938,377.8438" style="stroke:#181818;stroke-width:1;"/><line style="stroke:#181818;stroke-width:1;" x1="320.0938" x2="320.0938" y1="417.8125" y2="437.8125"/><polygon fill="#181818" points="316.0938,427.8125,320.0938,437.8125,324.0938,427.8125,320.0938,431.8125" style="stroke:#181818;stroke-width:1;"/><line style="stroke:#181818;stroke-width:1;" x1="320.0938" x2="320.0938" y1="471.7813" y2="491.7813"/><polygon fill="#181818" points="316.0938,481.7813,320.0938,491.7813,324.0938,481.7813,320.0938,485.7813" style="stroke:#181818;stroke-width:1;"/><line style="stroke:#181818;stroke-width:1;" x1="180.8291" x2="180.8291" y1="613.7188" y2="633.7188"/><polygon fill="#181818" points="176.8291,623.7188,180.8291,633.7188,184.8291,623.7188,180.8291,627.7188" style="stroke:#181818;stroke-width:1;"/><line style="stroke:#181818;stroke-width:1;" x1="180.8291" x2="180.8291" y1="667.6875" y2="687.6875"/><polygon fill="#181818" points="176.8291,677.6875,180.8291,687.6875,184.8291,677.6875,180.8291,681.6875" style="stroke:#181818;stroke-width:1;"/><line style="stroke:#181818;stroke-width:1;" x1="206.3706" x2="180.8291" y1="557.75" y2="557.75"/><line style="stroke:#181818;stroke-width:1;" x1="180.8291" x2="180.8291" y1="557.75" y2="579.75"/><polygon fill="#181818" points="176.8291,569.75,180.8291,579.75,184.8291,569.75,180.8291,573.75" style="stroke:#181818;stroke-width:1;"/><line style="stroke:#181818;stroke-width:1;" x1="433.8169" x2="459.3584" y1="557.75" y2="557.75"/><line style="stroke:#181818;stroke-width:1;" x1="459.3584" x2="459.3584" y1="557.75" y2="579.75"/><polygon fill="#181818" points="455.3584,569.75,459.3584,579.75,463.3584,569.75,459.3584,573.75" style="stroke:#181818;stroke-width:1;"/><line style="stroke:#181818;stroke-width:1;" x1="180.8291" x2="180.8291" y1="721.6563" y2="739.6563"/><line style="stroke:#181818;stroke-width:1;" x1="180.8291" x2="308.0938" y1="739.6563" y2="739.6563"/><polygon fill="#181818" points="298.0938,735.6563,308.0938,739.6563,298.0938,743.6563,302.0938,739.6563" style="stroke:#181818;stroke-width:1;"/><line style="stroke:#181818;stroke-width:1;" x1="459.3584" x2="459.3584" y1="613.7188" y2="739.6563"/><line style="stroke:#181818;stroke-width:1;" x1="459.3584" x2="332.0938" y1="739.6563" y2="739.6563"/><polygon fill="#181818" points="342.0938,735.6563,332.0938,739.6563,342.0938,743.6563,338.0938,739.6563" style="stroke:#181818;stroke-width:1;"/><line style="stroke:#181818;stroke-width:1;" x1="320.0938" x2="320.0938" y1="525.75" y2="545.75"/><polygon fill="#181818" points="316.0938,535.75,320.0938,545.75,324.0938,535.75,320.0938,539.75" style="stroke:#181818;stroke-width:1;"/><line style="stroke:#181818;stroke-width:1;" x1="320.0938" x2="320.0938" y1="751.6563" y2="771.6563"/><polygon fill="#181818" points="316.0938,761.6563,320.0938,771.6563,324.0938,761.6563,320.0938,765.6563" style="stroke:#181818;stroke-width:1;"/><!--SRC=[RL8xJiDG4EnzYXLLNBbF2XIHT0WXFWKL2i9091GGCGKTSVWK2I0X41s86-I3YI4uliBkZPXTsoW8AlkzdPsTcNtje74IE6L-bf0_vLnw4agVE9Lpdd64gx22whtqU8YhGLPzivykbJZb6KcNlm2UoZKFEE5ORaaww1tZyeqJkNChZjFS0_fHEXd11CWKo0uEjSPPlHMSd15w1p_SYou51tuBJRXm7Q8oFw5f38bTjCV6KxHM7F-mxGERS2HXXdx5z4dEDZUa19KHd2GeZpZcJmzUkweBI5NgjtQRUyvVpwcwaHl5SKgPCIgjd-wi1urztzMK7W0PeZpAv7ay-asXhbNGDSSvWNOzMHR8px8pu2mB9ukJ8m95n1COdqhVX8QgtXPZbbLzJ9e_VdlaaQaSWZB6PG8LaGKBi1sqymMaiQuSr6a-M2w0-S2KdeVQHEseUdu7HiNT5OjyiNtt3J8oFP6UROL03tXA2xe1kRJ-tDZ2FqkzLp26QIvNEc9Eg5nMYbN-9ffRVF4myi2iMZtTRGRBH_kbMdLhkxwoiRQrlRHMhsxKQzxcQas_xdylvZbx1SNw204YTR8alYm1Iu4_VXv9EpWw_WO0]--></g></svg>