<svg xmlns="http://www.w3.org/2000/svg" xmlns:xlink="http://www.w3.org/1999/xlink" contentStyleType="text/css" data-diagram-type="DESCRIPTION" height="597px" preserveAspectRatio="none" style="width:749px;height:597px;background:#FFFFFF;" version="1.1" viewBox="0 0 749 597" width="749px" zoomAndPan="magnify"><defs/><g><!--cluster Capabilities--><g class="cluster" data-entity="Capabilities" data-source-line="8" data-uid="ent0004" id="cluster_Capabilities"><rect fill="none" height="584" rx="2.5" ry="2.5" style="stroke:#181818;stroke-width:1;" width="282.79" x="126.6" y="7"/><text fill="#000000" font-family="sans-serif" font-size="14" font-weight="bold" lengthAdjust="spacing" textLength="92.9277" x="221.5311" y="21.9951">Capabilities</text></g><!--entity CapAuth--><g class="entity" data-entity="CapAuth" data-source-line="9" data-uid="ent0005" id="entity_CapAuth"><rect fill="#F1F1F1" height="36.2969" rx="2.5" ry="2.5" style="stroke:#181818;stroke-width:0.5;" width="158.9814" x="188.51" y="254.85"/><text fill="#000000" font-family="sans-serif" font-size="14" lengthAdjust="spacing" textLength="138.9814" x="198.51" y="277.8451">AUTH: Login/Logout</text></g><!--entity CapUsers--><g class="entity" data-entity="CapUsers" data-source-line="10" data-uid="ent0006" id="entity_CapUsers"><rect fill="#F1F1F1" height="36.2969" rx="2.5" ry="2.5" style="stroke:#181818;stroke-width:0.5;" width="166.1387" x="184.93" y="112.85"/><text fill="#000000" font-family="sans-serif" font-size="14" lengthAdjust="spacing" textLength="146.1387" x="194.93" y="135.8451">USER: Manage Users</text></g><!--entity CapProjects--><g class="entity" data-entity="CapProjects" data-source-line="11" data-uid="ent0007" id="entity_CapProjects"><rect fill="#F1F1F1" height="36.2969" rx="2.5" ry="2.5" style="stroke:#181818;stroke-width:0.5;" width="205.4658" x="165.26" y="41.85"/><text fill="#000000" font-family="sans-serif" font-size="14" lengthAdjust="spacing" textLength="185.4658" x="175.26" y="64.8451">PROJECT: Manage Projects</text></g><!--entity CapPlan--><g class="entity" data-entity="CapPlan" data-source-line="12" data-uid="ent0008" id="entity_CapPlan"><rect fill="#F1F1F1" height="36.2969" rx="2.5" ry="2.5" style="stroke:#181818;stroke-width:0.5;" width="250.7881" x="142.6" y="538.85"/><text fill="#000000" font-family="sans-serif" font-size="14" lengthAdjust="spacing" textLength="230.7881" x="152.6" y="561.8451">PLAN: Manage Stages/Substages</text></g><!--entity CapDay--><g class="entity" data-entity="CapDay" data-source-line="13" data-uid="ent0009" id="entity_CapDay"><rect fill="#F1F1F1" height="36.2969" rx="2.5" ry="2.5" style="stroke:#181818;stroke-width:0.5;" width="198.9922" x="168.5" y="467.85"/><text fill="#000000" font-family="sans-serif" font-size="14" lengthAdjust="spacing" textLength="178.9922" x="178.5" y="490.8451">DAY: Manage Day Entries</text></g><!--entity CapReport--><g class="entity" data-entity="CapReport" data-source-line="14" data-uid="ent0010" id="entity_CapReport"><rect fill="#F1F1F1" height="36.2969" rx="2.5" ry="2.5" style="stroke:#181818;stroke-width:0.5;" width="190.0918" x="172.95" y="325.85"/><text fill="#000000" font-family="sans-serif" font-size="14" lengthAdjust="spacing" textLength="170.0918" x="182.95" y="348.8451">REPORT: Export Reports</text></g><!--entity CapPay--><g class="entity" data-entity="CapPay" data-source-line="15" data-uid="ent0011" id="entity_CapPay"><rect fill="#F1F1F1" height="36.2969" rx="2.5" ry="2.5" style="stroke:#181818;stroke-width:0.5;" width="216.6563" x="159.67" y="183.85"/><text fill="#000000" font-family="sans-serif" font-size="14" lengthAdjust="spacing" textLength="196.6563" x="169.67" y="206.8451">PAY: Subscription/Payments</text></g><!--entity CapAudit--><g class="entity" data-entity="CapAudit" data-source-line="16" data-uid="ent0012" id="entity_CapAudit"><rect fill="#F1F1F1" height="36.2969" rx="2.5" ry="2.5" style="stroke:#181818;stroke-width:0.5;" width="128.2402" x="203.88" y="396.85"/><text fill="#000000" font-family="sans-serif" font-size="14" lengthAdjust="spacing" textLength="108.2402" x="213.88" y="419.8451">AUDIT: Logging</text></g><!--entity Admin--><g class="entity" data-entity="Admin" data-source-line="5" data-uid="ent0002" id="entity_Admin"><ellipse cx="44.299" cy="208.35" fill="#F1F1F1" rx="8" ry="8" style="stroke:#181818;stroke-width:0.5;"/><path d="M44.299,216.35 L44.299,243.35 M31.299,224.35 L57.299,224.35 M44.299,243.35 L31.299,258.35 M44.299,243.35 L57.299,258.35" fill="none" style="stroke:#181818;stroke-width:0.5;"/><text fill="#000000" font-family="sans-serif" font-size="14" lengthAdjust="spacing" textLength="47.0381" x="20.78" y="272.8451">ADMIN</text></g><!--entity Exec--><g class="entity" data-entity="Exec" data-source-line="6" data-uid="ent0003" id="entity_Exec"><ellipse cx="44.3018" cy="385.35" fill="#F1F1F1" rx="8" ry="8" style="stroke:#181818;stroke-width:0.5;"/><path d="M44.3018,393.35 L44.3018,420.35 M31.3018,401.35 L57.3018,401.35 M44.3018,420.35 L31.3018,435.35 M44.3018,420.35 L57.3018,435.35" fill="none" style="stroke:#181818;stroke-width:0.5;"/><text fill="#000000" font-family="sans-serif" font-size="14" lengthAdjust="spacing" textLength="76.6035" x="6" y="449.8451">EXECUTOR</text></g><g class="entity" data-entity="GMN24" data-source-line="34" data-uid="ent0025" id="entity_GMN24"><path d="M477.2,94.3 L477.2,121.29 L351.29,128.74 L477.2,129.29 L477.2,149.6984 A0,0 0 0 0 477.2,149.6984 L718.3494,149.6984 A0,0 0 0 0 718.3494,149.6984 L718.3494,104.3 L708.3494,94.3 L477.2,94.3 A0,0 0 0 0 477.2,94.3" fill="#FEFFDD" style="stroke:#181818;stroke-width:0.5;"/><path d="M708.3494,94.3 L708.3494,104.3 L718.3494,104.3 L708.3494,94.3" fill="#FEFFDD" style="stroke:#181818;stroke-width:0.5;"/><text fill="#000000" font-family="sans-serif" font-size="13" lengthAdjust="spacing" textLength="79.4409" x="483.2" y="111.3669">ADMIN only.</text><text fill="#000000" font-family="sans-serif" font-size="13" lengthAdjust="spacing" textLength="212.1323" x="483.2" y="126.4997">&#1054;&#1075;&#1088;&#1072;&#1085;&#1080;&#1095;&#1077;&#1085;&#1080;&#1077;: &#1090;&#1086;&#1083;&#1100;&#1082;&#1086; &#1074; &#1088;&#1072;&#1084;&#1082;&#1072;&#1093;</text><text fill="#000000" font-family="sans-serif" font-size="13" lengthAdjust="spacing" textLength="220.1494" x="483.2" y="141.6325">&#1087;&#1088;&#1086;&#1077;&#1082;&#1090;&#1086;&#1074;, &#1082;&#1086;&#1090;&#1086;&#1088;&#1099;&#1084;&#1080; &#1091;&#1087;&#1088;&#1072;&#1074;&#1083;&#1103;&#1077;&#1090;.</text></g><g class="entity" data-entity="GMN27" data-source-line="40" data-uid="ent0028" id="entity_GMN27"><path d="M453.39,316.3 L453.39,340 L363.37,344 L453.39,348 L453.39,371.6984 A0,0 0 0 0 453.39,371.6984 L742.1595,371.6984 A0,0 0 0 0 742.1595,371.6984 L742.1595,326.3 L732.1595,316.3 L453.39,316.3 A0,0 0 0 0 453.39,316.3" fill="#FEFFDD" style="stroke:#181818;stroke-width:0.5;"/><path d="M732.1595,316.3 L732.1595,326.3 L742.1595,326.3 L732.1595,316.3" fill="#FEFFDD" style="stroke:#181818;stroke-width:0.5;"/><text fill="#000000" font-family="sans-serif" font-size="13" lengthAdjust="spacing" textLength="219.5972" x="459.39" y="333.3669">EXECUTOR: &#1090;&#1086;&#1083;&#1100;&#1082;&#1086; &#1089;&#1074;&#1086;&#1080; &#1086;&#1090;&#1095;&#1077;&#1090;&#1099;.</text><text fill="#000000" font-family="sans-serif" font-size="13" lengthAdjust="spacing" textLength="267.7695" x="459.39" y="348.4997">ADMIN: &#1087;&#1086; &#1087;&#1086;&#1083;&#1100;&#1079;&#1086;&#1074;&#1072;&#1090;&#1077;&#1083;&#1102; &#1080; &#1087;&#1086; &#1087;&#1088;&#1086;&#1077;&#1082;&#1090;&#1091;.</text><text fill="#000000" font-family="sans-serif" font-size="13" lengthAdjust="spacing" textLength="182.1079" x="459.39" y="363.6325">&#1042;&#1089;&#1077; &#1101;&#1082;&#1089;&#1087;&#1086;&#1088;&#1090;&#1099; &#1083;&#1086;&#1075;&#1080;&#1088;&#1091;&#1102;&#1090;&#1089;&#1103;.</text></g><g class="entity" data-entity="GMN30" data-source-line="46" data-uid="ent0031" id="entity_GMN30"><path d="M459.57,184.3 L459.57,203.8 L376.78,205.29 L459.57,211.8 L459.57,239.6984 A0,0 0 0 0 459.57,239.6984 L735.987,239.6984 A0,0 0 0 0 735.987,239.6984 L735.987,194.3 L725.987,184.3 L459.57,184.3 A0,0 0 0 0 459.57,184.3" fill="#FEFFDD" style="stroke:#181818;stroke-width:0.5;"/><path d="M725.987,184.3 L725.987,194.3 L735.987,194.3 L725.987,184.3" fill="#FEFFDD" style="stroke:#181818;stroke-width:0.5;"/><text fill="#000000" font-family="sans-serif" font-size="13" lengthAdjust="spacing" textLength="255.417" x="465.57" y="201.3669">&#1060;&#1091;&#1085;&#1082;&#1094;&#1080;&#1086;&#1085;&#1072;&#1083; &#1086;&#1075;&#1088;&#1072;&#1085;&#1080;&#1095;&#1077;&#1085; &#1087;&#1088;&#1080; EXPIRED:</text><text fill="#000000" font-family="sans-serif" font-size="13" lengthAdjust="spacing" textLength="187.8589" x="465.57" y="216.4997">read-only, &#1079;&#1072;&#1087;&#1088;&#1077;&#1090; &#1101;&#1082;&#1089;&#1087;&#1086;&#1088;&#1090;&#1072;,</text><text fill="#000000" font-family="sans-serif" font-size="13" lengthAdjust="spacing" textLength="244.5054" x="465.57" y="231.6325">&#1079;&#1072;&#1087;&#1088;&#1077;&#1090; &#1076;&#1086;&#1073;&#1072;&#1074;&#1083;&#1077;&#1085;&#1080;&#1103; &#1087;&#1086;&#1083;&#1100;&#1079;&#1086;&#1074;&#1072;&#1090;&#1077;&#1083;&#1077;&#1081;.</text></g><!--link Admin to CapAuth--><g class="link" data-entity-1="Admin" data-entity-2="CapAuth" data-source-line="19" data-uid="lnk13" id="link_Admin_CapAuth"><path d="M68.19,241.61 C96.35,246.06 139.7033,252.9048 182.1633,259.6048" fill="none" id="Admin-to-CapAuth" style="stroke:#181818;stroke-width:1;"/><polygon fill="#181818" points="188.09,260.54,179.8235,255.1861,183.1511,259.7607,178.5765,263.0883,188.09,260.54" style="stroke:#181818;stroke-width:1;"/></g><!--link Exec to CapAuth--><g class="link" data-entity-1="Exec" data-entity-2="CapAuth" data-source-line="20" data-uid="lnk14" id="link_Exec_CapAuth"><path d="M62.7,376.36 C75.08,353.15 93.9,324.93 118.6,308 C139.02,294.01 158.4411,286.8174 182.3411,281.7374" fill="none" id="Exec-to-CapAuth" style="stroke:#181818;stroke-width:1;"/><polygon fill="#181818" points="188.21,280.49,178.575,278.4486,183.3193,281.5295,180.2383,286.2738,188.21,280.49" style="stroke:#181818;stroke-width:1;"/></g><!--link Admin to CapUsers--><g class="link" data-entity-1="Admin" data-entity-2="CapUsers" data-source-line="22" data-uid="lnk15" id="link_Admin_CapUsers"><path d="M68.22,208.83 C81.43,193.91 99.23,176.68 118.6,166 C138.77,154.88 156.5254,148.6266 178.8854,143.4366" fill="none" id="Admin-to-CapUsers" style="stroke:#181818;stroke-width:1;"/><polygon fill="#181818" points="184.73,142.08,175.0587,140.2185,179.8595,143.2105,176.8675,148.0113,184.73,142.08" style="stroke:#181818;stroke-width:1;"/></g><!--link Admin to CapProjects--><g class="link" data-entity-1="Admin" data-entity-2="CapProjects" data-source-line="23" data-uid="lnk16" id="link_Admin_CapProjects"><path d="M55.13,199.64 C65.51,166.96 85.11,121.23 118.6,95 C132.15,84.39 142.6565,78.7104 159.3465,73.4604" fill="none" id="Admin-to-CapProjects" style="stroke:#181818;stroke-width:1;"/><polygon fill="#181818" points="165.07,71.66,155.2845,70.5449,160.3004,73.1603,157.685,78.1763,165.07,71.66" style="stroke:#181818;stroke-width:1;"/></g><!--link Admin to CapReport--><g class="link" data-entity-1="Admin" data-entity-2="CapReport" data-source-line="24" data-uid="lnk17" id="link_Admin_CapReport"><path d="M68.3,266.75 C81.53,281.47 99.33,298.46 118.6,309 C135.21,318.08 148.3151,323.2647 166.9451,328.2647" fill="none" id="Admin-to-CapReport" style="stroke:#181818;stroke-width:1;"/><polygon fill="#181818" points="172.74,329.82,165.0845,323.6238,167.9109,328.5239,163.0108,331.3504,172.74,329.82" style="stroke:#181818;stroke-width:1;"/></g><!--link Admin to CapPay--><g class="link" data-entity-1="Admin" data-entity-2="CapPay" data-source-line="25" data-uid="lnk18" id="link_Admin_CapPay"><path d="M68.19,234.28 C90.15,230.72 119.0474,226.0207 153.4474,220.4407" fill="none" id="Admin-to-CapPay" style="stroke:#181818;stroke-width:1;"/><polygon fill="#181818" points="159.37,219.48,149.8457,216.9727,154.4345,220.2806,151.1266,224.8694,159.37,219.48" style="stroke:#181818;stroke-width:1;"/></g><!--link Admin to CapAudit--><g class="link" data-entity-1="Admin" data-entity-2="CapAudit" data-source-line="26" data-uid="lnk19" id="link_Admin_CapAudit"><path d="M55.31,276.42 C65.76,308.85 85.37,354.05 118.6,380 C142.7,398.82 169.3233,406.9108 197.8033,411.0808" fill="none" id="Admin-to-CapAudit" style="stroke:#181818;stroke-width:1;"/><polygon fill="#181818" points="203.74,411.95,195.4144,406.6883,198.7927,411.2256,194.2555,414.6039,203.74,411.95" style="stroke:#181818;stroke-width:1;"/></g><!--link Exec to CapPlan--><g class="link" data-entity-1="Exec" data-entity-2="CapPlan" data-source-line="28" data-uid="lnk20" id="link_Exec_CapPlan"><path d="M62.7,453.64 C75.08,476.85 93.9,505.07 118.6,522 C128.32,528.66 133.5488,531.8832 144.7988,536.2632" fill="none" id="Exec-to-CapPlan" style="stroke:#181818;stroke-width:1;"/><polygon fill="#181818" points="150.39,538.44,143.4544,531.4473,145.7307,536.626,140.552,538.9022,150.39,538.44" style="stroke:#181818;stroke-width:1;"/></g><!--link Exec to CapDay--><g class="link" data-entity-1="Exec" data-entity-2="CapDay" data-source-line="29" data-uid="lnk21" id="link_Exec_CapDay"><path d="M83.02,435.54 C94.25,441.1 106.72,446.74 118.6,451 C136.17,457.29 149.4999,461.3218 168.0199,465.9618" fill="none" id="Exec-to-CapDay" style="stroke:#181818;stroke-width:1;"/><polygon fill="#181818" points="173.84,467.42,166.0819,461.3527,168.9899,466.2049,164.1377,469.1128,173.84,467.42" style="stroke:#181818;stroke-width:1;"/></g><!--link Exec to CapReport--><g class="link" data-entity-1="Exec" data-entity-2="CapReport" data-source-line="30" data-uid="lnk22" id="link_Exec_CapReport"><path d="M83.02,394.46 C94.25,388.9 106.72,383.26 118.6,379 C136.17,372.71 149.4999,368.6782 168.0199,364.0382" fill="none" id="Exec-to-CapReport" style="stroke:#181818;stroke-width:1;"/><polygon fill="#181818" points="173.84,362.58,164.1377,360.8872,168.9899,363.7951,166.0819,368.6473,173.84,362.58" style="stroke:#181818;stroke-width:1;"/></g><!--link Exec to CapAudit--><g class="link" data-entity-1="Exec" data-entity-2="CapAudit" data-source-line="31" data-uid="lnk23" id="link_Exec_CapAudit"><path d="M82.91,415 C115.89,415 158.54,415 197.54,415" fill="none" id="Exec-to-CapAudit" style="stroke:#181818;stroke-width:1;"/><polygon fill="#181818" points="203.54,415,194.54,411,198.54,415,194.54,419,203.54,415" style="stroke:#181818;stroke-width:1;"/></g><!--SRC=[VPFFRjf04CRlVeeHvq3k72fPOAbKIK06f5HL3nlZa6rWrx8NAQYgn1-rFQGDKXwWfpu09KMXeO5Ns7sZpjXWC6fxOBqp-zkPRxzTElwb0YKXvEqh1IqU-fxYKbZHDHS12raNFDaDfF25ggj-nmS2c6Xt_3qaODurQ_k7WCKy9KF8sUNJobaEM0Hsgyl5DksSEwLce-h6AywDxrbMkXTo9HQm2zxXYljH3jvR06_iPkDb4KvacujZ76LFlQMjIDezTKL4i-wuHJXb0jL0C_B3Q4l40I4rj_hAAJLIgXRATzWr1RTnp9xOPobOLpX6n_NUHHJFqWqT9WWkswzJjipwu0WLyXs6AQ9SfrPriRjp4yXGWUlJ9uMIC6vDrQYN5_A0RkIunlfTl8LTtwIWtInN6h4hQ4jxPqYBA-k3PSMEGpx_8hM9dCuaianYL2QLMfB9RhHcITHqq95qP7h6Vkqdo9dzU5CugpCk8wJoDozLNkw9fVS5KdJw1Kj_qmzceAVwMI_CPpsdhvuNmOpqIY_D5_saLw1d43E_CPgQZvPUOxX2-2d6PaT06CtDmDmYjW0pZg6fdc6LYPwRKS7oHGj8qb-4RS-mUU87_SqGowomAZKXbJZU5f9p546lIU9wmp-I85GvGdbBSmUqAm5sciqO3twFLUTWlc9YI0HAnwgWbqWze1a3CpPtc1gQoN-bqntgxtZUPwpq2TrRuMogbq1rijOc8XRWdDSghbCkul-NjV9q4UZW8vAqZ8SxKAMdHrPcMV_4sZyISvChCvD_E82_Ntlo_m00]--></g></svg>