<svg xmlns="http://www.w3.org/2000/svg" xmlns:xlink="http://www.w3.org/1999/xlink" contentStyleType="text/css" data-diagram-type="SEQUENCE" height="531px" preserveAspectRatio="none" style="width:1131px;height:531px;background:#FFFFFF;" version="1.1" viewBox="0 0 1131 531" width="1131px" zoomAndPan="magnify"><defs/><g><g><title>Admin</title><rect fill="#000000" fill-opacity="0.00000" height="369.5938" width="8" x="26.4321" y="81.2969"/><line style="stroke:#181818;stroke-width:0.5;stroke-dasharray:5,5;" x1="30" x2="30" y1="81.2969" y2="450.8906"/></g><g><title>ReportAPI</title><rect fill="#000000" fill-opacity="0.00000" height="369.5938" width="8" x="352.7393" y="81.2969"/><line style="stroke:#181818;stroke-width:0.5;stroke-dasharray:5,5;" x1="356.146" x2="356.146" y1="81.2969" y2="450.8906"/></g><g><title>ReportService.Interactor</title><rect fill="#000000" fill-opacity="0.00000" height="369.5938" width="8" x="497.5542" y="81.2969"/><line style="stroke:#181818;stroke-width:0.5;stroke-dasharray:5,5;" x1="501.3325" x2="501.3325" y1="81.2969" y2="450.8906"/></g><g><title>Auth.Policy</title><rect fill="#000000" fill-opacity="0.00000" height="369.5938" width="8" x="716.9795" y="81.2969"/><line style="stroke:#181818;stroke-width:0.5;stroke-dasharray:5,5;" x1="720.8301" x2="720.8301" y1="81.2969" y2="450.8906"/></g><g><title>ReportGenerator</title><rect fill="#000000" fill-opacity="0.00000" height="369.5938" width="8" x="839.1948" y="81.2969"/><line style="stroke:#181818;stroke-width:0.5;stroke-dasharray:5,5;" x1="843.1289" x2="843.1289" y1="81.2969" y2="450.8906"/></g><g><title>Storage</title><rect fill="#000000" fill-opacity="0.00000" height="369.5938" width="8" x="949.6489" y="81.2969"/><line style="stroke:#181818;stroke-width:0.5;stroke-dasharray:5,5;" x1="953.2607" x2="953.2607" y1="81.2969" y2="450.8906"/></g><g><title>AuditLogService</title><rect fill="#000000" fill-opacity="0.00000" height="369.5938" width="8" x="1057.8916" y="81.2969"/><line style="stroke:#181818;stroke-width:0.5;stroke-dasharray:5,5;" x1="1061.0371" x2="1061.0371" y1="81.2969" y2="450.8906"/></g><g class="participant participant-head" data-participant="Admin"><text fill="#000000" font-family="sans-serif" font-size="14" lengthAdjust="spacing" textLength="44.8643" x="5" y="77.9951">Admin</text><ellipse cx="30.4321" cy="13.5" fill="#E2E2F0" rx="8" ry="8" style="stroke:#181818;stroke-width:0.5;"/><path d="M30.4321,21.5 L30.4321,48.5 M17.4321,29.5 L43.4321,29.5 M30.4321,48.5 L17.4321,63.5 M30.4321,48.5 L43.4321,63.5" fill="none" style="stroke:#181818;stroke-width:0.5;"/></g><g class="participant participant-tail" data-participant="Admin"><text fill="#000000" font-family="sans-serif" font-size="14" lengthAdjust="spacing" textLength="44.8643" x="5" y="462.8857">Admin</text><ellipse cx="30.4321" cy="474.6875" fill="#E2E2F0" rx="8" ry="8" style="stroke:#181818;stroke-width:0.5;"/><path d="M30.4321,482.6875 L30.4321,509.6875 M17.4321,490.6875 L43.4321,490.6875 M30.4321,509.6875 L17.4321,524.6875 M30.4321,509.6875 L43.4321,524.6875" fill="none" style="stroke:#181818;stroke-width:0.5;"/></g><g class="participant participant-head" data-participant="API"><rect fill="#E2E2F0" height="30.2969" rx="2.5" ry="2.5" style="stroke:#181818;stroke-width:0.5;" width="83.1865" x="315.146" y="50"/><text fill="#000000" font-family="sans-serif" font-size="14" lengthAdjust="spacing" textLength="69.1865" x="322.146" y="69.9951">ReportAPI</text></g><g class="participant participant-tail" data-participant="API"><rect fill="#E2E2F0" height="30.2969" rx="2.5" ry="2.5" style="stroke:#181818;stroke-width:0.5;" width="83.1865" x="315.146" y="449.8906"/><text fill="#000000" font-family="sans-serif" font-size="14" lengthAdjust="spacing" textLength="69.1865" x="322.146" y="469.8857">ReportAPI</text></g><g class="participant participant-head" data-participant="R"><rect fill="#E2E2F0" height="30.2969" rx="2.5" ry="2.5" style="stroke:#181818;stroke-width:0.5;" width="186.4434" x="408.3325" y="50"/><text fill="#000000" font-family="sans-serif" font-size="14" lengthAdjust="spacing" textLength="172.4434" x="415.3325" y="69.9951">ReportService/Interactor</text></g><g class="participant participant-tail" data-participant="R"><rect fill="#E2E2F0" height="30.2969" rx="2.5" ry="2.5" style="stroke:#181818;stroke-width:0.5;" width="186.4434" x="408.3325" y="449.8906"/><text fill="#000000" font-family="sans-serif" font-size="14" lengthAdjust="spacing" textLength="172.4434" x="415.3325" y="469.8857">ReportService/Interactor</text></g><g class="participant participant-head" data-participant="Policy"><rect fill="#E2E2F0" height="30.2969" rx="2.5" ry="2.5" style="stroke:#181818;stroke-width:0.5;" width="92.2988" x="674.8301" y="50"/><text fill="#000000" font-family="sans-serif" font-size="14" lengthAdjust="spacing" textLength="78.2988" x="681.8301" y="69.9951">Auth/Policy</text></g><g class="participant participant-tail" data-participant="Policy"><rect fill="#E2E2F0" height="30.2969" rx="2.5" ry="2.5" style="stroke:#181818;stroke-width:0.5;" width="92.2988" x="674.8301" y="449.8906"/><text fill="#000000" font-family="sans-serif" font-size="14" lengthAdjust="spacing" textLength="78.2988" x="681.8301" y="469.8857">Auth/Policy</text></g><g class="participant participant-head" data-participant="Gen"><rect fill="#E2E2F0" height="30.2969" rx="2.5" ry="2.5" style="stroke:#181818;stroke-width:0.5;" width="132.1318" x="777.1289" y="50"/><text fill="#000000" font-family="sans-serif" font-size="14" lengthAdjust="spacing" textLength="118.1318" x="784.1289" y="69.9951">ReportGenerator</text></g><g class="participant participant-tail" data-participant="Gen"><rect fill="#E2E2F0" height="30.2969" rx="2.5" ry="2.5" style="stroke:#181818;stroke-width:0.5;" width="132.1318" x="777.1289" y="449.8906"/><text fill="#000000" font-family="sans-serif" font-size="14" lengthAdjust="spacing" textLength="118.1318" x="784.1289" y="469.8857">ReportGenerator</text></g><g class="participant participant-head" data-participant="Store"><rect fill="#E2E2F0" height="30.2969" rx="2.5" ry="2.5" style="stroke:#181818;stroke-width:0.5;" width="68.7764" x="919.2607" y="50"/><text fill="#000000" font-family="sans-serif" font-size="14" lengthAdjust="spacing" textLength="54.7764" x="926.2607" y="69.9951">Storage</text></g><g class="participant participant-tail" data-participant="Store"><rect fill="#E2E2F0" height="30.2969" rx="2.5" ry="2.5" style="stroke:#181818;stroke-width:0.5;" width="68.7764" x="919.2607" y="449.8906"/><text fill="#000000" font-family="sans-serif" font-size="14" lengthAdjust="spacing" textLength="54.7764" x="926.2607" y="469.8857">Storage</text></g><g class="participant participant-head" data-participant="Audit"><rect fill="#E2E2F0" height="30.2969" rx="2.5" ry="2.5" style="stroke:#181818;stroke-width:0.5;" width="127.709" x="998.0371" y="50"/><text fill="#000000" font-family="sans-serif" font-size="14" lengthAdjust="spacing" textLength="113.709" x="1005.0371" y="69.9951">AuditLogService</text></g><g class="participant participant-tail" data-participant="Audit"><rect fill="#E2E2F0" height="30.2969" rx="2.5" ry="2.5" style="stroke:#181818;stroke-width:0.5;" width="127.709" x="998.0371" y="449.8906"/><text fill="#000000" font-family="sans-serif" font-size="14" lengthAdjust="spacing" textLength="113.709" x="1005.0371" y="469.8857">AuditLogService</text></g><g class="message" data-participant-1="Admin" data-participant-2="API"><polygon fill="#181818" points="344.7393,108.4297,354.7393,112.4297,344.7393,116.4297,348.7393,112.4297" style="stroke:#181818;stroke-width:1;"/><line style="stroke:#181818;stroke-width:1;" x1="30.4321" x2="350.7393" y1="112.4297" y2="112.4297"/><text fill="#000000" font-family="sans-serif" font-size="13" lengthAdjust="spacing" textLength="302.3071" x="37.4321" y="107.3638">POST /reports/export {project, users?, period}</text></g><g class="message" data-participant-1="API" data-participant-2="R"><polygon fill="#181818" points="489.5542,137.5625,499.5542,141.5625,489.5542,145.5625,493.5542,141.5625" style="stroke:#181818;stroke-width:1;"/><line style="stroke:#181818;stroke-width:1;" x1="356.7393" x2="495.5542" y1="141.5625" y2="141.5625"/><text fill="#000000" font-family="sans-serif" font-size="13" lengthAdjust="spacing" textLength="102.1846" x="363.7393" y="136.4966">export(request)</text></g><g class="message" data-participant-1="R" data-participant-2="Policy"><polygon fill="#181818" points="708.9795,166.6953,718.9795,170.6953,708.9795,174.6953,712.9795,170.6953" style="stroke:#181818;stroke-width:1;"/><line style="stroke:#181818;stroke-width:1;" x1="501.5542" x2="714.9795" y1="170.6953" y2="170.6953"/><text fill="#000000" font-family="sans-serif" font-size="13" lengthAdjust="spacing" textLength="195.4253" x="508.5542" y="165.6294">check admin + project access</text></g><g class="message" data-participant-1="Policy" data-participant-2="R"><polygon fill="#181818" points="512.5542,195.8281,502.5542,199.8281,512.5542,203.8281,508.5542,199.8281" style="stroke:#181818;stroke-width:1;"/><line style="stroke:#181818;stroke-width:1;stroke-dasharray:2,2;" x1="506.5542" x2="719.9795" y1="199.8281" y2="199.8281"/><text fill="#000000" font-family="sans-serif" font-size="13" lengthAdjust="spacing" textLength="98.7568" x="518.5542" y="194.7622">allowed/denied</text></g><g class="message" data-participant-1="R" data-participant-2="Gen"><polygon fill="#181818" points="831.1948,224.9609,841.1948,228.9609,831.1948,232.9609,835.1948,228.9609" style="stroke:#181818;stroke-width:1;"/><line style="stroke:#181818;stroke-width:1;" x1="501.5542" x2="837.1948" y1="228.9609" y2="228.9609"/><text fill="#000000" font-family="sans-serif" font-size="13" lengthAdjust="spacing" textLength="125.8994" x="508.5542" y="223.895">generate_pdf(data)</text></g><g class="message" data-participant-1="Gen" data-participant-2="R"><polygon fill="#181818" points="512.5542,254.0938,502.5542,258.0938,512.5542,262.0938,508.5542,258.0938" style="stroke:#181818;stroke-width:1;"/><line style="stroke:#181818;stroke-width:1;stroke-dasharray:2,2;" x1="506.5542" x2="842.1948" y1="258.0938" y2="258.0938"/><text fill="#000000" font-family="sans-serif" font-size="13" lengthAdjust="spacing" textLength="63.394" x="518.5542" y="253.0278">pdf_bytes</text></g><g class="message" data-participant-1="R" data-participant-2="Store"><polygon fill="#181818" points="941.6489,283.2266,951.6489,287.2266,941.6489,291.2266,945.6489,287.2266" style="stroke:#181818;stroke-width:1;"/><line style="stroke:#181818;stroke-width:1;" x1="501.5542" x2="947.6489" y1="287.2266" y2="287.2266"/><text fill="#000000" font-family="sans-serif" font-size="13" lengthAdjust="spacing" textLength="103.9683" x="508.5542" y="282.1606">save(pdf_bytes)</text></g><g class="message" data-participant-1="Store" data-participant-2="R"><polygon fill="#181818" points="512.5542,312.3594,502.5542,316.3594,512.5542,320.3594,508.5542,316.3594" style="stroke:#181818;stroke-width:1;"/><line style="stroke:#181818;stroke-width:1;stroke-dasharray:2,2;" x1="506.5542" x2="952.6489" y1="316.3594" y2="316.3594"/><text fill="#000000" font-family="sans-serif" font-size="13" lengthAdjust="spacing" textLength="77.4287" x="518.5542" y="311.2935">file_path/url</text></g><g class="message" data-participant-1="R" data-participant-2="Audit"><polygon fill="#181818" points="1049.8916,341.4922,1059.8916,345.4922,1049.8916,349.4922,1053.8916,345.4922" style="stroke:#181818;stroke-width:1;"/><line style="stroke:#181818;stroke-width:1;" x1="501.5542" x2="1055.8916" y1="345.4922" y2="345.4922"/><text fill="#000000" font-family="sans-serif" font-size="13" lengthAdjust="spacing" textLength="261.625" x="508.5542" y="340.4263">log(action=REPORT_EXPORTED, details)</text></g><g class="message" data-participant-1="Audit" data-participant-2="R"><polygon fill="#181818" points="512.5542,370.625,502.5542,374.625,512.5542,378.625,508.5542,374.625" style="stroke:#181818;stroke-width:1;"/><line style="stroke:#181818;stroke-width:1;stroke-dasharray:2,2;" x1="506.5542" x2="1060.8916" y1="374.625" y2="374.625"/><text fill="#000000" font-family="sans-serif" font-size="13" lengthAdjust="spacing" textLength="15.4819" x="518.5542" y="369.5591">ok</text></g><g class="message" data-participant-1="R" data-participant-2="API"><polygon fill="#181818" points="367.7393,399.7578,357.7393,403.7578,367.7393,407.7578,363.7393,403.7578" style="stroke:#181818;stroke-width:1;"/><line style="stroke:#181818;stroke-width:1;stroke-dasharray:2,2;" x1="361.7393" x2="500.5542" y1="403.7578" y2="403.7578"/><text fill="#000000" font-family="sans-serif" font-size="13" lengthAdjust="spacing" textLength="67.1138" x="373.7393" y="398.6919">report link</text></g><g class="message" data-participant-1="API" data-participant-2="Admin"><polygon fill="#181818" points="41.4321,428.8906,31.4321,432.8906,41.4321,436.8906,37.4321,432.8906" style="stroke:#181818;stroke-width:1;"/><line style="stroke:#181818;stroke-width:1;stroke-dasharray:2,2;" x1="35.4321" x2="355.7393" y1="432.8906" y2="432.8906"/><text fill="#000000" font-family="sans-serif" font-size="13" lengthAdjust="spacing" textLength="47.7026" x="47.4321" y="427.8247">200 OK</text></g><!--SRC=[RL5DImCn4BtdLmmzRR5bYyU2Ii4YHQ7BRW_UIaocszYuMPDijOZ_tKcoMwZqDCcyZycySE6DXONyK0rhkVLAg9Ot7aObjiRwHR4Q0NT0zHfSeJqgWVcgyMXvi8hiyfAxwFm-BunMuXJXTBpczuGD-GmsTBiaLOJm6YCOplX_ZbJ-nTJzgzB3Gu-nk21CxyCYC8TYNMqWjt6co_4xLFXfhNb7uIVGERJkOG8jMcNaBmiYqfQaJDpCucU7peyPAmEIDY9Ox54SWCTfDz0R0XS2dMCzQzfRSQtD5yfSOgDGzawqCq5roW6thTnbadi-PW4ObDJTlfqykbuKiw2-uqVCpk2OfVwWsYbDXfp-ehEwLyPu2DEcpkZ_b6dkocMnBZVRvMieoyS9IFHSQR9BvC7E7AB7ETEK9cZL759W0Ob1pE5sDeFryny0]--></g></svg>